<svg width="2500" height="2500" viewBox="0 0 2500 2500" fill="none" xmlns="http://www.w3.org/2000/svg">
<path fill-rule="evenodd" clip-rule="evenodd" d="M0 0H2500V2500H0V0Z" fill="white"/>
<path fill-rule="evenodd" clip-rule="evenodd" d="M751.805 1554.52C681.042 1610.3 597.517 1642.75 506.794 1642.75C298.408 1642.75 110.282 1470.72 110.282 1259.03C110.282 1150.52 151.072 1043.98 228.488 967.402C298.136 898.87 395.526 855.577 493.474 855.577C588.918 855.577 679.655 882.216 752.623 944.368C821.155 887.482 910.231 856.134 999.58 856.134C1091.43 856.134 1179.65 886.924 1250.13 945.755C1320.32 884.707 1409.67 856.964 1501.8 856.964C1591.97 856.964 1678.25 889.155 1748.19 945.483C1823.09 886.924 1913 857.25 2008.45 857.25C2093.63 857.25 2180.19 892.488 2245.68 946.313C2335.85 1020.12 2389.69 1133.05 2389.69 1249.58C2389.69 1466.02 2215.72 1644.42 1998.47 1644.42C1906.33 1644.42 1817.83 1615.57 1747.92 1555.07C1678.53 1609.74 1591.43 1644.14 1502.35 1644.14C1409.39 1644.14 1320.32 1615.84 1249.3 1554.79C1177.99 1610.84 1090.59 1643.3 999.58 1643.3C908.856 1643.31 820.338 1614.74 751.805 1554.52V1554.52Z" fill="#919191"/>
<path fill-rule="evenodd" clip-rule="evenodd" d="M665.232 1455.48C630.266 1397.19 608.074 1329.5 608.074 1261.23C608.074 1182.71 626.115 1110.29 666.062 1042.59C615 1007.35 556.182 986.26 493.474 986.26C349.185 986.26 241.264 1120 241.264 1258.18C241.264 1399.13 370.014 1511.22 506.807 1511.22C564.794 1511.24 619.449 1490.16 665.232 1455.48V1455.48ZM751.52 1332.27C762.064 1304.81 765.67 1275.95 765.67 1246.55C765.67 1218.79 760.391 1191.6 752.078 1165.24C743.751 1191.05 738.758 1217.68 738.758 1244.88C738.758 1274.84 742.376 1303.97 751.52 1332.27ZM838.093 1455.48C889.155 1495.71 948.803 1511.51 1013.46 1511.51C1068.96 1511.51 1120 1488.49 1163.57 1455.75C1123.32 1389.71 1105.85 1317.57 1105.85 1240.14C1105.85 1171.05 1129.72 1102.79 1164.4 1043.7C1116.4 1009.02 1059.8 986.818 999.865 986.818C939.932 986.818 885.277 1007.08 838.651 1043.42C880.543 1111.39 896.081 1186.59 896.081 1265.94C896.081 1331.98 872.502 1399.97 838.093 1455.48V1455.48ZM1249.03 1332.82C1257.91 1305.93 1263.73 1276.51 1263.73 1248.2C1263.73 1219.35 1259.27 1193.56 1249.3 1166.63C1240.68 1193.05 1236.27 1220.67 1236.25 1248.47C1236.27 1277.6 1237.93 1305.64 1249.03 1332.82ZM1334.77 1456.31C1386.38 1494.87 1444.91 1512.62 1509.03 1512.62C1563.95 1512.62 1618.61 1489.6 1661.35 1455.75C1625.55 1395.82 1603.65 1327.27 1603.65 1257.08C1603.65 1181.34 1623.33 1109.47 1662.19 1044.82C1615.31 1008.48 1557.58 987.661 1498.19 987.661C1438.8 987.661 1382.78 1008.74 1335.89 1044.53C1376.95 1111.96 1393.59 1179.94 1393.59 1259.58C1393.59 1328.95 1370.84 1397.47 1334.77 1456.31ZM1747.38 1333.1C1756.23 1305.47 1760.72 1276.64 1760.7 1247.63C1760.7 1220.17 1755.96 1193.26 1747.65 1167.18C1739.6 1193.26 1734.04 1219.05 1734.04 1246.54C1734.04 1276.22 1738.21 1304.81 1747.38 1333.1V1333.1ZM1834.48 1456.84C1881.37 1492.64 1938.54 1513.74 1997.64 1513.74C2143.58 1513.74 2259.57 1394.43 2259.57 1249.3C2259.57 1106.96 2136.65 987.661 1995.13 987.661C1936.58 987.661 1880.81 1009.29 1834.47 1044.26C1870.82 1106.14 1892.46 1176.62 1892.46 1248.74C1892.47 1322.57 1868.05 1391.92 1834.48 1456.84V1456.84Z" fill="white"/>
</svg>
