<svg width="2500" height="2500" viewBox="0 0 2500 2500" fill="none" xmlns="http://www.w3.org/2000/svg">
<path fill-rule="evenodd" clip-rule="evenodd" d="M0 0H2500V2500H0V0Z" fill="white"/>
<path fill-rule="evenodd" clip-rule="evenodd" d="M1250 2463.24C1574.05 2463.24 1878.75 2337.05 2107.9 2107.9C2337.05 1878.74 2463.24 1574.08 2463.24 1250C2463.24 925.938 2337.05 621.265 2107.9 392.115C1878.75 162.965 1574.06 36.7693 1250 36.7693C581.02 36.7693 36.7693 581.02 36.7693 1250C36.7693 1574.06 162.965 1878.74 392.115 2107.9C621.265 2337.03 925.938 2463.24 1250 2463.24V2463.24Z" fill="#909090"/>
<path fill-rule="evenodd" clip-rule="evenodd" d="M78.7395 1250C78.7395 937.156 200.565 643.028 421.79 421.803C643.015 200.577 937.143 78.7524 1249.99 78.7524C1562.84 78.7524 1856.97 200.59 2078.18 421.803C2299.41 643.028 2421.22 937.156 2421.22 1250C2421.22 1895.84 1895.82 2421.26 1249.97 2421.26C937.117 2421.26 643.002 2299.42 421.777 2078.21C200.552 1857 78.7395 1562.86 78.7395 1250Z" fill="white"/>
<path fill-rule="evenodd" clip-rule="evenodd" d="M1250 127.013C629.799 127.013 127.013 629.812 127.013 1250C127.013 1870.2 629.812 2372.99 1250 2372.99C1870.2 2372.99 2372.99 1870.2 2372.99 1250C2372.99 629.812 1870.2 127.013 1250 127.013V127.013Z" fill="#909090"/>
<path fill-rule="evenodd" clip-rule="evenodd" d="M1250 1967.33C853.838 1967.33 532.668 1646.16 532.668 1250C532.668 853.839 853.838 532.668 1250 532.668C1646.15 532.668 1967.33 853.839 1967.33 1250C1967.33 1646.16 1646.15 1967.33 1250 1967.33V1967.33Z" fill="white"/>
<path fill-rule="evenodd" clip-rule="evenodd" d="M578.815 1250H1250V578.828C879.324 578.828 578.815 879.324 578.815 1250ZM1250 1250V1921.19C1620.66 1921.19 1921.17 1620.68 1921.17 1250H1250V1250Z" fill="#909090"/>
<path fill-rule="evenodd" clip-rule="evenodd" d="M722.844 565.586C699.07 542.486 662.314 535.509 627.802 556.909C634.39 539.828 631.705 522.396 628.204 512.773C613.34 485.666 608.152 482.268 595.896 471.996C556.234 438.715 514.498 467.132 484.641 502.708L340.417 674.596L567.155 864.85L719.264 683.584C754.01 642.172 759.393 601.11 722.844 565.586V565.586ZM1287.57 483.915L1365.44 277.527V483.915H1424.62V188.334H1335.7L1254.82 399.962H1255.67L1174.79 188.334H1085.88V483.915H1145.06V277.527L1222.93 483.915H1287.57V483.915ZM2083.22 606.881L1971.78 764.632L2144.52 682.625L2190.27 739.095L1918.38 870.894L1864.7 804.073L1971.64 647.71L1971.03 646.932L1795.83 719.018L1741.64 652.626L1927.07 414.099L1972.82 470.569L1856.67 622.484L2034.15 546.299L2083.22 606.881V606.881Z" fill="white"/>
<path fill-rule="evenodd" clip-rule="evenodd" d="M516.171 545.249C526.209 533.291 548.893 533.771 563.471 546.014C579.515 559.477 579.554 578.555 568.789 591.395L483.137 693.48L429.533 648.488L516.171 545.249ZM668.565 665.66L578.27 773.283L521.644 725.762L612.692 617.27C622.964 605.014 645.894 601.447 661.341 614.417C678.825 629.111 680.563 651.368 668.565 665.66V665.66Z" fill="#909090"/>
</svg>
