<svg width="2500" height="2500" viewBox="0 0 2500 2500" fill="none" xmlns="http://www.w3.org/2000/svg">
<path fill-rule="evenodd" clip-rule="evenodd" d="M0 0H2500V2500H0V0Z" fill="white"/>
<path fill-rule="evenodd" clip-rule="evenodd" d="M1250 2389.71C620.564 2389.71 110.295 1879.42 110.295 1250C110.295 620.564 620.564 110.295 1250 110.295C1879.45 110.295 2389.71 620.564 2389.71 1250C2389.71 1879.42 1879.45 2389.71 1250 2389.71V2389.71Z" fill="#909090"/>
<path fill-rule="evenodd" clip-rule="evenodd" d="M1250.31 1422.16L324.996 1805.14C519.958 2132.74 873.254 2332.63 1254.25 2330.65C1634.28 2329.67 1986.59 2127.77 2179.57 1799.22L1250.31 1422.16V1422.16ZM1090.03 1151.68L1237.48 174.91C857.457 179.852 507.131 384.709 317.124 714.258C126.131 1043.81 124.146 1449.55 311.196 1781.09L1090.03 1151.68V1151.68ZM1405.68 1164.63L2193.41 1774.24C2376.5 1442.72 2372.53 1039.93 2181.55 712.364C2088.18 551.306 1954.7 417.164 1794.11 322.994C1633.52 228.825 1451.28 177.835 1265.14 174.988L1405.68 1164.63V1164.63Z" fill="white"/>
</svg>
